<?xml version="1.0" encoding="UTF-8"?>
<svg version="1.1" xmlns="http://www.w3.org/2000/svg" width="626" height="626">
<path d="M0 0 C206.58 0 413.16 0 626 0 C626 206.58 626 413.16 626 626 C419.42 626 212.84 626 0 626 C0 419.42 0 212.84 0 0 Z " fill="#F8F8F8" transform="translate(0,0)"/>
<path d="M0 0 C1.88087311 -0.0076664 1.88087311 -0.0076664 3.79974365 -0.01548767 C7.1987815 -0.02690514 10.59757334 -0.02947359 13.99661279 -0.02692437 C16.85389326 -0.02584404 19.711152 -0.03076491 22.56842774 -0.03552979 C29.32021233 -0.04657254 36.07194125 -0.04709227 42.82373047 -0.04101562 C49.74416041 -0.0349821 56.66438671 -0.04728309 63.58478194 -0.06858569 C69.56742323 -0.08631131 75.55000035 -0.09218588 81.53266686 -0.08894795 C85.08773012 -0.08715207 88.64264815 -0.08959847 92.19768715 -0.10366249 C136.80908055 -0.26480633 136.80908055 -0.26480633 153.3659668 15.59887695 C171.53033035 35.9631798 171.70937635 61.30733647 170.75268555 87.2746582 C170.46734848 92.15709246 169.87365427 96.98180001 169.12963867 101.81567383 C168.66511018 104.84593998 168.23406476 107.88056946 167.79956055 110.9152832 C167.45232745 113.28532827 167.10336666 115.65512086 166.75268555 118.0246582 C166.58671875 119.15709961 166.42075195 120.28954102 166.24975586 121.45629883 C166.08572266 122.52557617 165.92168945 123.59485352 165.75268555 124.6965332 C165.60831055 125.65140625 165.46393555 126.6062793 165.31518555 127.59008789 C164.74139192 130.32855782 163.80733879 132.69011986 162.75268555 135.2746582 C162.58768555 136.4502832 162.42268555 137.6259082 162.25268555 138.8371582 C161.81454462 141.84937708 161.29411978 143.70560115 159.75268555 146.2746582 C160.49518555 146.3365332 161.23768555 146.3984082 162.00268555 146.4621582 C165.77408129 147.57643422 166.7239886 148.91681498 168.75268555 152.2746582 C173.28202746 164.78792485 171.0639655 180.80247326 166.3190918 192.94262695 C161.98223848 202.16790346 157.06451591 210.81578885 147.56518555 215.2746582 C144.56862012 217.03363638 143.8412894 218.02936542 142.6394043 221.35668945 C142.18893233 223.25184686 141.73968662 225.14759457 141.33007812 227.05200195 C140.14172714 232.36719515 138.24637256 236.9391579 135.75268555 241.7746582 C135.42010742 242.42023682 135.0875293 243.06581543 134.74487305 243.73095703 C124.82753535 262.59683738 124.82753535 262.59683738 119.27954102 267.4284668 C113.76889011 272.33817651 111.23763407 275.97878371 110.54367065 283.27954102 C110.37988634 286.82866278 110.36628854 290.35578597 110.44897461 293.9074707 C110.50254146 296.64230184 110.44945306 299.36064789 110.38549805 302.0949707 C110.33690984 314.64157206 113.10513661 321.33362896 121.75268555 330.2746582 C122.74492556 331.52032366 123.72071669 332.77973357 124.6628418 334.0637207 C126.11884558 335.98215762 127.57724755 337.8987764 129.0378418 339.8137207 C130.75268555 342.2746582 130.75268555 342.2746582 131.75268555 345.2746582 C133.18161133 345.45061523 133.18161133 345.45061523 134.6394043 345.63012695 C149.8952235 347.83675181 164.68787593 353.08983863 179.19018555 358.1496582 C179.89495026 358.39197174 180.59971497 358.63428528 181.32583618 358.88394165 C195.87980215 363.91085857 209.35289838 370.70264984 222.75268555 378.2746582 C224.18547852 379.06549805 224.18547852 379.06549805 225.6472168 379.87231445 C226.56889648 380.39696289 227.49057617 380.92161133 228.44018555 381.4621582 C229.26905273 381.93008789 230.09791992 382.39801758 230.9519043 382.88012695 C231.54616211 383.34032227 232.14041992 383.80051758 232.75268555 384.2746582 C232.75268555 389.78850399 227.44693401 393.49947159 223.75268555 397.2746582 C221.81569936 399.08475127 219.84090146 400.81555282 217.8112793 402.52075195 C216.39636571 403.72624759 215.01457641 404.97137804 213.6628418 406.24731445 C201.48225431 417.71997036 187.421741 427.00032757 172.83520508 435.1159668 C171.46230676 435.87983261 170.09335877 436.65084827 168.72875977 437.42944336 C151.77511277 447.0896059 133.47853444 453.90724911 114.75268555 459.2746582 C113.61959961 459.62012695 112.48651367 459.9655957 111.3190918 460.3215332 C91.14913571 466.16789729 70.00462851 468.47766219 49.06518555 468.3996582 C48.06965668 468.39683334 48.06965668 468.39683334 47.05401611 468.39395142 C-9.6929821 468.20517629 -66.05203319 450.79391693 -110.24731445 414.2746582 C-110.77196289 413.84475586 -111.29661133 413.41485352 -111.8371582 412.97192383 C-135.61624047 393.44114283 -135.61624047 393.44114283 -142.24731445 384.2746582 C-140.83572241 380.03988208 -137.81664056 378.89201576 -134.12231445 376.7746582 C-133.37240234 376.3410498 -132.62249023 375.90744141 -131.84985352 375.46069336 C-77.96711707 344.89071084 -77.96711707 344.89071084 -52.16918945 346.4621582 C-47.72262977 346.63400592 -44.1019047 346.67612426 -40.41870117 343.89282227 C-36.51512941 340.25631006 -33.09377944 336.22081973 -29.73022461 332.08764648 C-27.91633208 329.8700031 -25.99375041 327.7627377 -24.05981445 325.6496582 C-18.89307407 319.84218748 -17.72548302 315.21016554 -17.2980957 307.59887695 C-17.23575241 306.6737178 -17.17340912 305.74855865 -17.10917664 304.79536438 C-16.91365622 301.85161561 -16.73649604 298.90709174 -16.55981445 295.9621582 C-16.43016599 293.96142833 -16.29932014 291.96077565 -16.16723633 289.96020508 C-15.84671459 285.06580887 -15.54264952 280.17063614 -15.24731445 275.2746582 C-15.90731445 275.2746582 -16.56731445 275.2746582 -17.24731445 275.2746582 C-32.24731445 259.2246582 -32.24731445 259.2246582 -32.24731445 253.2746582 C-32.90731445 253.2746582 -33.56731445 253.2746582 -34.24731445 253.2746582 C-40.23016037 241.94998557 -43.16946941 230.82043474 -45.24731445 218.2746582 C-46.11743164 218.12770508 -46.11743164 218.12770508 -47.00512695 217.9777832 C-56.2630372 216.20564197 -61.64814657 211.70379803 -67.24731445 204.2746582 C-74.19056515 193.66077178 -74.71187722 181.19849469 -74.55981445 168.8996582 C-74.56192573 167.55981216 -74.56517593 166.21996742 -74.56958008 164.88012695 C-74.50720482 153.61855851 -74.50720482 153.61855851 -72.24731445 148.2746582 C-70.12231445 147.3996582 -70.12231445 147.3996582 -68.24731445 147.2746582 C-68.66303711 145.71618164 -68.66303711 145.71618164 -69.0871582 144.1262207 C-69.45343392 142.71746796 -69.81929699 141.30860788 -70.18481445 139.8996582 C-70.3672168 139.22032227 -70.54961914 138.54098633 -70.73754883 137.84106445 C-73.15700164 128.42719349 -73.41153912 118.97304509 -73.45043945 109.29418945 C-73.45613953 108.16430099 -73.4618396 107.03441254 -73.4677124 105.87028503 C-73.47711484 103.4843335 -73.48367734 101.09836926 -73.48754883 98.71240234 C-73.49716561 95.14241429 -73.52819881 91.57302505 -73.55981445 88.00317383 C-73.61254634 76.78256809 -73.34979918 65.73250694 -71.93481445 54.59106445 C-71.8201886 53.67573441 -71.70556274 52.76040436 -71.58746338 51.81733704 C-69.82921065 39.53122801 -64.7584602 28.40082846 -56.24731445 19.2746582 C-55.56024414 18.53731445 -54.87317383 17.7999707 -54.1652832 17.0402832 C-52.24731445 15.2746582 -52.24731445 15.2746582 -50.24731445 15.2746582 C-50.24731445 14.6146582 -50.24731445 13.9546582 -50.24731445 13.2746582 C-35.98650925 2.06973983 -17.48144509 -0.03755954 0 0 Z " fill="#9E9E9C" transform="translate(266.247314453125,98.725341796875)"/>
<path d="M0 0 C0 3.29657856 -0.74333269 5.16364428 -2 8.1875 C-2.37125 9.08855469 -2.7425 9.98960937 -3.125 10.91796875 C-3.41375 11.60503906 -3.7025 12.29210937 -4 13 C-5.08557659 9.75784173 -4.94015194 7.97678191 -3.6875 4.8125 C-3.42324219 4.11769531 -3.15898437 3.42289062 -2.88671875 2.70703125 C-2 1 -2 1 0 0 Z " fill="#DCDCDA" transform="translate(412,315)"/>
</svg>
